# ProBuilder 5.0.3
# https://unity3d.com/unity/features/worldbuilding/probuilder
# 16/07/2021 00:13:05

mtllib ./Wall_2m.mtl
o Wall_2m

g Wall_2m
v 1 0 1
v 1 0 -1
v 1 2.75 1
v 1 2.75 -1
v 0.5 3 1
v 0.5 3 -1
v 0.5 3.25 1
v 0.5 3.25 -1

vt 1 0
vt 0 -1.192093E-07
vt 0.9999999 0.7500001
vt 5.960464E-08 0.7499999
vt 1 0.875
vt 4.172325E-07 0.875
vt 1 1
vt 2.384186E-07 1
vt 1 0.6279163
vt 2.682209E-07 0.6279163

vn -1 0 0
vn -0.4472136 -0.8944272 0

usemtl Wall_Metal_A
f 3/3/1 4/4/1 2/2/1 1/1/1
f 7/7/1 8/8/1 6/6/1 5/5/1
f 5/5/2 6/6/2 4/10/2 3/9/2

